<svg xmlns="http://www.w3.org/2000/svg" xmlns:xlink="http://www.w3.org/1999/xlink">
<symbol viewBox="0 0 300 300" id="shape-bitbucket">
	<title>bitbucket</title>
<g transform="translate(0.000000,300.000000) scale(0.100000,-0.100000)"
stroke="none">
<path d="M1235 2990 c-33 -4 -112 -13 -175 -20 -241 -25 -491 -90 -651 -171
-93 -46 -141 -86 -176 -146 -24 -41 -25 -51 -20 -126 6 -86 58 -428 102 -677
14 -80 43 -246 64 -370 22 -124 47 -244 56 -268 40 -98 235 -217 470 -285 193
-57 315 -71 610 -71 245 -1 281 1 390 23 220 43 447 130 566 217 52 38 96 96
109 145 25 89 220 1262 220 1320 0 58 -24 102 -84 155 -132 116 -422 214 -746
254 -52 6 -125 16 -162 21 -78 11 -486 10 -573 -1z m645 -224 c202 -28 282
-45 344 -74 70 -33 129 -79 120 -94 -14 -23 -104 -70 -175 -93 -96 -30 -243
-51 -472 -66 -279 -19 -675 12 -853 66 -79 24 -174 77 -182 102 -5 16 75 72
136 96 54 21 208 49 362 66 58 6 121 13 140 15 77 9 472 -4 580 -18z m-214
-842 c166 -78 252 -219 242 -394 -14 -249 -260 -437 -493 -377 -79 20 -138 55
-203 119 -157 156 -157 391 0 563 114 125 300 162 454 89z"/>
<path d="M1415 1741 c-147 -67 -160 -285 -22 -365 82 -48 157 -43 236 15 96
69 109 210 27 298 -63 68 -160 89 -241 52z"/>
<path d="M541 881 c-19 -13 -18 -43 12 -211 65 -361 80 -402 179 -481 148
-118 400 -179 764 -186 198 -4 220 -3 338 22 214 44 396 118 470 191 61 61 92
139 120 304 13 80 31 176 40 213 23 98 21 135 -7 148 -19 9 -34 4 -92 -32
-504 -306 -1221 -303 -1736 7 -61 37 -67 38 -88 25z"/>
</g>
</symbol>


<!-- define view locations for each icon -->
    <view id="shape-bitbucket-view" viewBox="0 0 24 24" />

	<use xlink:href="#shape-bitbucket" width="24" height="24" x="0" y="0" id="bitbucket"></use>
</svg>
