<svg xmlns="http://www.w3.org/2000/svg" xmlns:xlink="http://www.w3.org/1999/xlink">
<symbol viewBox="0 0 128 128" id="shape-gitlab">
	<title>gitlab</title>
	 <path d="M126.615 72.31l-7.034-21.646-13.94-42.902c-.54-1.662-2.44-2.07-3.654-1.23-.4.276-.724.853-.902 1.398L87.144 51H40.856L31.62 22.41 26.917 7.847a2.748 2.748 0 0 0-.372-.767c-.078-.104-.18-.194-.27-.28-.937-.89-2.465-.876-3.36.072a2.336 2.336 0 0 0-.556.894l-13.94 42.9-2.946 9.068L1.385 72.31a4.78 4.78 0 0 0 .85 4.496c.26.317.55.613.89.86L64 121.895l60.874-44.227a4.785 4.785 0 0 0 1.74-5.357zm-7.034-21.647z"/>
	</symbol>

<!-- define view locations for each icon -->
    <view id="shape-gitlab-view" viewBox="0 0 24 24" />

	<use xlink:href="#shape-gitlab" width="24" height="24" x="0" y="0" id="gitlab"></use>
</svg>