<svg xmlns="http://www.w3.org/2000/svg" xmlns:xlink="http://www.w3.org/1999/xlink">
<symbol viewBox="0 0 512 512" id="shape-juce">
	<title>juce</title>
<g transform="translate(0.000000,512.000000) scale(0.100000,-0.100000)" stroke="none">
<path d="M2405 4810 c-533 -39 -1024 -258 -1408 -629 -712 -688 -895 -1742
-456 -2624 331 -665 957 -1118 1699 -1233 158 -25 481 -25 640 -1 492 76 930
295 1276 641 346 347 564 780 641 1276 24 158 24 481 -1 640 -114 741 -564
1363 -1226 1695 -281 140 -542 212 -865 235 -151 11 -151 11 -300 0z m500
-185 c494 -89 919 -327 1232 -690 452 -523 621 -1217 457 -1876 -94 -379 -277
-702 -554 -979 -636 -637 -1591 -796 -2398 -400 -606 297 -1018 844 -1143
1514 -27 143 -37 439 -20 586 58 504 279 949 642 1295 319 304 719 497 1160
559 137 20 496 15 624 -9z"/>
<path d="M2173 4455 c-274 -56 -532 -170 -749 -331 -39 -28 -81 -64 -92 -79
-26 -33 -30 -102 -8 -143 8 -15 264 -276 569 -581 407 -406 559 -552 573 -549
18 3 19 27 22 803 3 740 2 802 -14 833 -40 76 -109 87 -301 47z"/>
<path d="M2714 4470 c-26 -10 -72 -65 -79 -93 -3 -12 -4 -375 -3 -806 3 -734
4 -785 21 -795 15 -9 94 66 582 554 623 623 603 599 570 686 -16 43 -55 77
-195 171 -76 52 -230 130 -339 173 -217 86 -486 139 -557 110z"/>
<path d="M1075 3788 c-39 -30 -133 -160 -195 -267 -101 -177 -174 -373 -215
-576 -31 -150 -32 -207 -5 -250 43 -70 -4 -66 885 -63 776 3 800 4 803 22 3
14 -143 166 -549 573 -305 305 -566 561 -581 569 -41 22 -110 18 -143 -8z"/>
<path d="M3915 3800 c-11 -5 -274 -263 -584 -574 -490 -490 -563 -567 -552
-580 12 -14 99 -16 810 -16 781 0 797 0 829 20 20 13 41 38 53 65 19 43 19 48
4 142 -31 190 -82 354 -165 530 -82 173 -211 367 -268 405 -28 19 -93 23 -127
8z"/>
<path d="M725 2476 c-17 -7 -44 -29 -59 -47 -28 -33 -28 -36 -23 -119 16 -221
134 -556 274 -775 96 -149 142 -203 187 -220 87 -33 63 -53 686 570 488 488
563 567 554 582 -10 17 -61 18 -800 20 -639 2 -795 0 -819 -11z"/>
<path d="M2781 2476 c-9 -10 -9 -20 -2 -33 5 -10 259 -266 563 -570 605 -603
588 -589 673 -561 30 10 52 30 97 87 189 247 322 569 368 894 13 91 -8 146
-69 176 -40 21 -52 21 -829 21 -674 0 -791 -2 -801 -14z"/>
<path d="M1882 1777 l-572 -572 0 -47 c0 -68 15 -93 94 -152 245 -184 546
-311 859 -361 94 -15 99 -15 142 4 27 12 52 33 65 53 20 32 20 48 20 834 0
722 -2 802 -16 808 -9 3 -16 6 -17 6 -1 0 -260 -258 -575 -573z"/>
<path d="M2642 2338 c-9 -9 -12 -201 -12 -803 0 -895 -5 -837 80 -882 49 -26
72 -25 240 8 272 55 557 183 771 347 60 47 77 66 88 100 26 84 34 74 -577 685
-306 306 -562 557 -568 557 -5 0 -15 -5 -22 -12z"/>
</g>
	</symbol>


<!-- define view locations for each icon -->
    <view id="shape-juce-view" viewBox="0 0 24 24" />

	<use xlink:href="#shape-juce" width="24" height="24" x="0" y="0" id="juce"></use>
</svg>
