<svg xmlns="http://www.w3.org/2000/svg" xmlns:xlink="http://www.w3.org/1999/xlink">
<symbol viewBox="0 0 750 1000" id="shape-kali">
	<title>kali</title>
<g transform="translate(0.000000,1000.000000) scale(0.100000,-0.100000)" stroke="none">
<path d="M3320 8538 c0 -12 181 -412 265 -583 81 -166 143 -275 317 -560 55
-90 81 -141 73 -143 -21 -5 -284 85 -370 126 -44 22 -190 105 -324 185 -134
81 -246 147 -250 147 -7 0 -3 -38 23 -247 4 -28 2 -43 -5 -43 -7 0 -122 48
-258 107 -327 141 -433 184 -440 178 -2 -3 19 -78 48 -166 28 -89 50 -164 47
-167 -7 -6 -248 17 -555 54 -117 14 -214 24 -216 22 -1 -2 49 -72 112 -157 63
-84 111 -157 106 -161 -4 -4 -172 -37 -373 -75 -201 -37 -368 -70 -372 -74 -4
-4 27 -36 70 -71 100 -84 172 -151 172 -160 0 -4 -118 -87 -262 -183 -145 -97
-276 -187 -293 -200 l-30 -25 35 -14 c19 -8 95 -32 168 -53 78 -23 131 -43
129 -49 -3 -6 -102 -148 -222 -316 l-217 -305 174 -3 c95 -1 178 -4 184 -6 13
-5 3 -54 -96 -494 -28 -129 -50 -235 -48 -238 3 -2 69 28 148 66 79 39 149 70
156 70 16 0 34 -57 125 -402 40 -150 74 -275 77 -278 2 -3 45 40 96 94 l92 99
110 -94 c110 -95 227 -186 319 -249 170 -116 800 -447 1055 -553 396 -166 820
-364 1015 -475 130 -74 353 -223 460 -309 115 -92 306 -286 383 -388 115 -153
203 -363 267 -639 20 -86 40 -167 44 -179 17 -43 25 53 25 298 1 264 -7 319
-65 464 -38 98 -177 355 -240 446 -138 200 -523 551 -754 687 -33 19 -90 54
-126 76 -85 52 -321 170 -524 262 -404 183 -739 368 -985 546 -419 301 -707
647 -821 984 -28 82 -33 112 -37 225 -11 313 88 568 299 771 136 130 274 206
490 269 117 34 132 36 357 45 278 11 365 4 558 -45 175 -45 432 -157 611 -266
114 -70 285 -203 397 -310 128 -122 222 -232 336 -394 145 -207 281 -326 640
-561 91 -59 203 -135 250 -168 116 -83 312 -281 381 -386 167 -251 196 -397
115 -580 -54 -122 -54 -120 -18 -120 101 0 395 152 525 271 153 140 267 343
267 475 0 63 -6 71 -84 116 -97 56 -185 119 -273 196 -149 130 -304 329 -339
436 l-17 50 33 29 c31 28 36 29 91 23 33 -4 59 -5 59 -2 0 3 -25 34 -56 68
-91 102 -182 223 -223 295 -197 351 -230 406 -317 523 -43 58 -133 159 -199
226 -106 106 -201 192 -529 481 -72 62 -226 228 -517 553 -112 125 -363 425
-523 625 -153 190 -150 187 -141 155 13 -43 182 -435 226 -522 97 -195 300
-522 379 -613 51 -58 100 -133 100 -152 0 -33 -40 0 -211 175 -366 373 -615
659 -900 1034 -85 111 -159 209 -166 217 -7 9 -13 13 -13 9z m2322 -2536 c55
-75 121 -158 145 -184 39 -42 53 -68 37 -68 -39 0 -263 189 -325 274 -49 66
-32 154 23 125 10 -5 64 -71 120 -147z"/>
</g>
</symbol>


<!-- define view locations for each icon -->
    <view id="shape-kali-view" viewBox="0 0 24 24" />

	<use xlink:href="#shape-kali" width="24" height="24" x="0" y="0" id="kali"></use>
</svg>
