<svg xmlns="http://www.w3.org/2000/svg" xmlns:xlink="http://www.w3.org/1999/xlink">
<symbol viewBox="0 0 1280 293" id="shape-maven">
	<title>maven</title>
<g transform="translate(0.000000,293.000000) scale(0.100000,-0.100000)" stroke="none">
<path d="M3194 2260 c-77 -25 -167 -83 -238 -154 -31 -31 -56 -50 -56 -42 0 8
7 50 15 93 8 43 15 81 15 86 0 4 -101 7 -224 7 l-224 0 -6 -27 c-3 -16 -62
-354 -131 -753 -69 -399 -127 -735 -130 -747 l-5 -23 224 0 c205 0 225 2 230
18 3 9 35 188 71 397 36 209 75 413 85 453 27 98 72 184 127 243 57 61 114 89
181 89 43 0 57 -5 85 -30 41 -36 61 -101 52 -169 -10 -68 -165 -963 -171 -983
-5 -17 10 -18 223 -18 l228 0 69 398 c72 412 98 528 142 614 34 66 109 146
159 169 51 24 128 24 166 2 35 -21 69 -86 69 -134 0 -19 -38 -256 -85 -527
-47 -271 -85 -499 -85 -507 0 -13 33 -15 225 -15 124 0 225 2 225 5 0 3 39
227 86 498 112 642 117 739 47 882 -64 131 -178 195 -349 195 -180 0 -330 -77
-467 -239 -28 -34 -37 -40 -37 -25 0 69 -106 195 -198 237 -68 31 -233 35
-318 7z"/>
<path d="M5335 1948 c-38 -5 -108 -16 -155 -26 l-84 -17 -30 -148 c-16 -81
-26 -150 -23 -153 3 -3 19 2 35 10 59 31 208 67 322 78 100 10 129 9 197 -4
44 -9 93 -24 108 -34 36 -23 56 -72 48 -117 l-5 -35 -227 -5 c-191 -3 -238 -8
-306 -26 -230 -62 -355 -183 -386 -373 -28 -172 48 -324 191 -380 69 -27 228
-36 309 -18 74 16 174 69 240 127 l54 47 -6 -34 c-4 -19 -9 -54 -13 -77 l-7
-43 199 0 199 0 75 383 c102 524 102 609 -8 726 -92 98 -218 132 -484 130 -95
-1 -204 -6 -243 -11z m361 -705 c-3 -10 -8 -31 -12 -48 -40 -173 -227 -289
-367 -227 -81 36 -108 112 -68 191 40 78 107 100 304 101 137 0 148 -1 143
-17z"/>
<path d="M8412 1944 c-269 -59 -479 -251 -572 -524 -31 -92 -40 -301 -15 -386
25 -87 62 -150 122 -204 110 -101 241 -140 462 -140 80 0 178 5 216 10 81 12
264 56 316 76 l35 15 27 147 c15 81 27 150 27 153 0 4 -49 -13 -109 -37 -170
-69 -285 -96 -421 -98 -105 -1 -120 1 -172 26 -77 36 -111 87 -116 174 l-4 64
455 0 455 0 16 88 c20 110 20 241 0 317 -41 158 -171 279 -346 320 -79 19
-290 18 -376 -1z m220 -254 c78 -22 133 -102 126 -186 l-3 -39 -242 -3 c-166
-2 -243 1 -243 8 0 19 40 89 71 124 73 83 193 123 291 96z"/>
<path d="M10170 1941 c-77 -25 -127 -52 -204 -111 -36 -28 -66 -47 -66 -43 1
4 7 37 15 73 8 36 14 68 15 73 0 4 -90 7 -199 7 -198 0 -199 0 -204 -22 -3
-13 -56 -279 -116 -593 -61 -314 -113 -578 -115 -588 -4 -16 9 -17 196 -15
l201 3 67 337 c74 373 93 428 174 512 65 66 98 80 188 81 74 0 79 -2 109 -32
52 -51 50 -80 -31 -498 -39 -203 -73 -378 -76 -387 -5 -17 9 -18 195 -18 182
0 200 2 205 18 3 9 37 181 77 382 106 540 105 633 -4 744 -72 74 -135 96 -270
95 -69 0 -120 -6 -157 -18z"/>
<path d="M6430 1923 c0 -10 52 -285 117 -610 l118 -593 211 0 212 0 356 605
c196 333 356 607 356 610 0 3 -91 4 -202 3 l-202 -3 -221 -407 c-121 -224
-222 -409 -225 -412 -3 -3 -39 174 -79 392 -40 218 -75 405 -78 415 -4 15 -21
17 -184 17 -164 0 -179 -1 -179 -17z"/>
</g>
	</symbol>


<!-- define view locations for each icon -->
    <view id="shape-maven-view" viewBox="0 0 24 24" />

	<use xlink:href="#shape-maven" width="24" height="24" x="0" y="0" id="maven"></use>
</svg>
