<svg xmlns="http://www.w3.org/2000/svg" xmlns:xlink="http://www.w3.org/1999/xlink">
<symbol viewBox="0 0 300 300" id="shape-rootme">
	<title>rootme</title>
	 <g transform="translate(0.000000,300.000000) scale(0.100000,-0.100000)"
fill="#000000" stroke="none">
<path d="M1316 2727 c-31 -33 -54 -47 -91 -56 -180 -45 -416 -218 -529 -390
-121 -183 -170 -346 -170 -561 1 -132 11 -201 50 -314 20 -61 21 -71 9 -90
-27 -37 -19 -84 20 -123 l35 -35 0 -202 0 -203 163 -114 162 -114 3 -134 c1
-79 7 -140 14 -148 15 -18 1048 -19 1066 -1 8 8 12 56 12 147 l0 136 137 95
c75 52 149 106 165 118 l28 24 0 200 0 200 30 35 c32 36 38 74 19 115 -8 19
-5 40 14 99 39 117 50 212 44 361 -6 155 -32 261 -99 392 -72 144 -197 289
-322 376 -70 47 -191 105 -274 130 -58 18 -75 28 -87 50 -29 57 -124 65 -165
13 -39 -50 -16 -140 40 -158 19 -6 20 -16 20 -201 0 -148 3 -194 13 -194 6 0
44 12 83 26 69 25 73 25 98 9 25 -16 26 -22 26 -100 l0 -82 -59 -64 c-86 -94
-207 -192 -218 -176 -5 6 -31 63 -58 125 -47 111 -48 114 -32 142 22 37 21 62
-4 94 -16 20 -29 26 -59 26 -30 0 -43 -6 -59 -26 -25 -32 -26 -45 -6 -85 10
-19 26 -32 44 -35 24 -5 33 -19 79 -127 28 -67 54 -130 58 -139 4 -13 -16 -32
-94 -83 -55 -36 -105 -65 -111 -65 -7 0 -87 23 -179 50 l-166 51 -53 -22 c-48
-19 -54 -20 -75 -5 -32 23 -65 20 -93 -9 -51 -50 -16 -125 57 -125 39 0 64 21
70 59 2 17 15 28 49 42 l46 18 142 -43 c77 -23 143 -45 146 -47 7 -7 -309
-159 -424 -204 -88 -35 -95 -36 -129 -23 -30 11 -40 23 -54 59 -42 114 -60
300 -42 433 l7 46 219 0 c220 0 220 0 239 -24 47 -59 138 -28 139 47 0 34 -43
77 -77 77 -14 0 -38 -13 -55 -30 l-30 -30 -209 0 c-238 0 -225 -6 -189 88 73
193 196 351 353 455 70 47 187 102 248 118 42 11 49 11 77 -9 58 -42 131 -22
158 44 27 64 -24 134 -95 134 -28 0 -43 -8 -75 -43z m108 -26 c25 -27 17 -64
-16 -75 -34 -12 -58 6 -58 45 0 45 44 63 74 30z m246 -13 c14 -26 13 -29 -7
-49 -45 -46 -111 14 -67 62 24 26 55 21 74 -13z m209 -124 c31 -14 74 -36 97
-49 l41 -24 -9 -69 c-10 -89 -38 -169 -91 -261 l-42 -74 -3 57 c-3 51 0 59 22
77 32 25 35 76 7 110 -38 47 -131 18 -131 -41 0 -12 -17 -24 -56 -39 -31 -11
-58 -21 -60 -21 -2 0 -4 76 -4 169 0 157 1 170 19 176 10 3 26 14 36 24 16 18
20 19 68 4 28 -8 76 -26 106 -39z m286 -198 c105 -107 170 -215 219 -360 50
-151 43 -237 -31 -380 -51 -96 -203 -249 -338 -338 -182 -120 -449 -248 -516
-248 -67 0 -440 105 -521 146 -42 22 -33 3 17 -36 43 -34 44 -37 39 -77 -12
-84 40 -175 123 -217 43 -22 128 -20 180 4 27 12 55 36 75 64 29 42 36 46 72
46 37 0 47 -7 146 -105 105 -103 108 -105 154 -105 41 0 69 12 194 81 81 45
155 91 165 102 15 17 17 41 17 187 l0 167 68 60 c37 33 87 86 112 118 88 112
81 108 65 40 -26 -113 -39 -138 -75 -150 -80 -27 -104 -107 -50 -168 l30 -35
0 -184 0 -184 -107 -74 c-59 -41 -133 -94 -165 -117 l-57 -43 -3 -122 -3 -123
-77 -3 -78 -3 0 55 c0 36 -5 60 -16 70 -18 19 -20 19 -45 6 -15 -9 -19 -22
-19 -71 l0 -60 -92 3 -93 3 -5 79 c-4 59 -9 82 -22 89 -31 20 -48 -8 -48 -78
0 -96 2 -95 -101 -95 l-89 0 0 53 c0 65 -24 96 -59 78 -16 -9 -21 -23 -23 -69
l-3 -57 -77 -3 -78 -3 0 121 c0 144 16 121 -193 268 l-147 102 0 183 c0 183 0
183 25 205 13 12 27 34 31 49 3 15 7 33 9 38 1 6 43 25 91 44 117 44 331 147
447 212 311 177 541 379 663 584 56 93 104 225 104 288 0 15 5 27 11 27 6 0
40 -29 74 -64z m-1455 -1070 c15 -19 9 -56 -11 -69 -9 -5 -28 -7 -42 -3 -52
13 -42 86 12 86 16 0 34 -7 41 -14z m1680 -5 c14 -27 13 -37 -6 -55 -40 -40
-101 3 -75 53 15 28 66 29 81 2z m-1125 -286 c33 -10 66 -19 73 -21 21 -6 -3
-39 -38 -54 -39 -16 -115 -8 -142 16 -24 22 -48 74 -48 104 0 20 1 20 48 -4
26 -13 74 -31 107 -41z"/>
<path d="M1450 689 c-30 -36 -49 -67 -46 -76 3 -8 6 -17 6 -19 0 -11 35 -2 57
16 33 26 63 25 97 -1 30 -24 56 -19 56 10 0 23 -87 131 -106 131 -7 0 -36 -28
-64 -61z"/>
<path d="M1356 2447 c-9 -7 -22 -23 -29 -36 -8 -16 -35 -32 -85 -50 -41 -15
-78 -34 -83 -42 -5 -8 -9 -33 -9 -56 l0 -43 -56 0 c-48 0 -60 4 -80 25 -30 33
-85 34 -114 3 -29 -32 -27 -81 6 -107 39 -30 77 -27 107 9 24 28 30 30 101 30
l76 0 0 54 c0 61 4 66 80 94 54 20 56 20 79 1 32 -27 77 -24 106 6 30 30 32
64 4 99 -23 29 -72 36 -103 13z"/>
</g>

	</symbol>

<!-- define view locations for each icon -->
    <view id="shape-rootme-view" viewBox="0 0 24 24" />

	<use xlink:href="#shape-rootme" width="24" height="24" x="0" y="0" id="rootme"></use>
</svg>

