<svg xmlns="http://www.w3.org/2000/svg" xmlns:xlink="http://www.w3.org/1999/xlink">
<symbol viewBox="0 0 270 253" id="shape-roundcube">
	<title>roundcube</title>
<g transform="translate(0.000000,253.000000) scale(0.100000,-0.100000)" stroke="none">
<path d="M1267 2510 c-320 -54 -592 -285 -698 -594 -16 -46 -34 -119 -40 -163
l-11 -79 -259 -133 -259 -132 5 -37 c2 -20 12 -172 21 -337 10 -191 20 -304
28 -311 11 -12 1720 -724 1733 -723 5 0 37 37 73 82 66 82 303 373 571 702
l147 179 51 266 c75 385 74 380 70 385 -3 2 -90 23 -194 47 l-189 44 -18 88
c-74 369 -362 650 -732 715 -68 13 -228 13 -299 1z m294 -96 c160 -30 288 -95
406 -207 135 -129 217 -285 244 -468 10 -67 9 -106 -1 -194 -19 -167 -41 -227
-105 -292 -30 -29 -66 -58 -82 -64 -44 -17 -210 -60 -288 -73 -76 -14 -445
-14 -466 0 -7 4 -45 11 -83 15 -144 15 -314 75 -406 143 -124 91 -173 205
-166 382 13 308 189 570 469 699 155 71 312 91 478 59z m1029 -886 c0 -9 -207
-229 -501 -533 -59 -60 -136 -141 -171 -178 l-65 -69 -32 -266 c-41 -344 -41
-342 -57 -342 -19 0 -19 3 22 321 19 155 34 282 32 284 -2 1 -59 21 -128 45
-69 23 -138 49 -153 57 -30 15 -565 193 -582 193 -5 0 -23 7 -40 16 -16 9 -46
20 -65 24 -39 9 -653 218 -714 244 -25 10 -36 20 -30 26 6 6 126 -30 319 -96
171 -58 324 -109 340 -114 34 -9 380 -127 410 -140 11 -4 164 -57 339 -116
l319 -107 91 94 c378 393 550 572 596 621 48 53 70 64 70 36z"/>
</g>
</symbol>


<!-- define view locations for each icon -->
    <view id="shape-roundcube-view" viewBox="0 0 24 24" />

	<use xlink:href="#shape-roundcube" width="24" height="24" x="0" y="0" id="roundcube"></use>
</svg>