<svg xmlns="http://www.w3.org/2000/svg" xmlns:xlink="http://www.w3.org/1999/xlink">
<symbol viewBox="0 0 300 300" id="shape-springboot">
	<title>springboot</title>
<g transform="translate(0.000000,300.000000) scale(0.100000,-0.100000)" stroke="none">
<path d="M855 2766 c-50 -16 -111 -55 -147 -92 -27 -30 -548 -932 -599 -1039
-25 -52 -29 -72 -29 -145 0 -73 4 -93 29 -145 63 -131 574 -1012 607 -1046 20
-20 61 -50 92 -65 l57 -29 635 0 635 0 57 29 c31 15 72 45 92 65 33 34 544
915 607 1046 25 52 29 72 29 145 0 73 -4 93 -29 145 -62 130 -575 1012 -608
1046 -19 20 -60 50 -91 65 l-57 29 -620 2 c-479 2 -629 -1 -660 -11z m679
-430 c67 -28 66 -18 66 -449 l0 -389 -34 -34 c-26 -26 -42 -34 -69 -34 -46 0
-93 39 -107 88 -8 25 -10 157 -8 392 3 395 3 396 71 425 40 18 41 18 81 1z
m-387 -168 c25 -20 45 -69 39 -94 -4 -13 -44 -61 -90 -107 -65 -65 -92 -101
-121 -161 -95 -197 -79 -422 42 -600 180 -264 540 -331 806 -150 160 110 250
283 250 484 0 174 -57 305 -190 437 -89 87 -97 107 -68 162 17 34 63 55 102
47 16 -4 56 -32 91 -62 107 -96 192 -233 234 -381 32 -111 32 -295 0 -407 -60
-208 -195 -379 -382 -484 -187 -104 -433 -121 -641 -43 -206 78 -384 266 -460
488 -31 92 -33 106 -34 238 0 157 16 228 81 359 57 112 184 259 249 287 24 10
73 3 92 -13z"/>
</g>
</symbol>


<!-- define view locations for each icon -->
    <view id="shape-springboot-view" viewBox="0 0 24 24" />

	<use xlink:href="#shape-springboot" width="24" height="24" x="0" y="0" id="springboot"></use>
</svg>