<svg xmlns="http://www.w3.org/2000/svg" xmlns:xlink="http://www.w3.org/1999/xlink">
<symbol viewBox="0 0 512 512" id="shape-sublimetext">
	<title>sublimetext</title>
<g transform="translate(0.000000,512.000000) scale(0.100000,-0.100000)" stroke="none">
<path d="M506 4794 c-36 -11 -65 -31 -107 -73 -98 -98 -89 114 -89 -2161 0
-2275 -9 -2063 89 -2161 98 -98 -114 -89 2161 -89 2275 0 2063 -9 2161 89 98
98 89 -114 89 2161 0 2275 9 2063 -89 2161 -98 98 115 89 -2165 88 -1753 0
-2007 -2 -2050 -15z m3318 -590 c14 -13 16 -66 16 -425 0 -434 -2 -453 -48
-478 -9 -5 -154 -52 -322 -106 -595 -189 -712 -227 -708 -230 1 -2 233 -76
513 -165 389 -123 516 -167 535 -186 l25 -24 3 -424 3 -424 -27 -31 c-23 -27
-57 -41 -287 -115 -537 -174 -2190 -696 -2202 -696 -8 0 -21 7 -29 16 -14 13
-16 66 -16 427 0 391 1 414 20 444 21 35 33 40 735 259 171 53 317 100 325
105 13 7 13 8 0 13 -8 3 -238 76 -510 162 -272 86 -506 162 -521 169 -48 25
-49 38 -49 478 l0 412 23 28 c20 26 142 66 1242 417 671 213 1230 388 1242
389 12 0 29 -6 37 -15z"/>
</g>
</symbol>
<!-- define view locations for each icon -->
    <view id="shape-sublimetext-view" viewBox="0 0 24 24" />

	<use xlink:href="#shape-sublimetext" width="24" height="24" x="0" y="0" id="sublimetext"></use>
</svg>
