<svg xmlns="http://www.w3.org/2000/svg" xmlns:xlink="http://www.w3.org/1999/xlink">
<symbol viewBox="0 0 1280 853" id="shape-tomcat">
	<title>tomcat</title>
<g transform="translate(0.000000,853.000000) scale(0.100000,-0.100000)" stroke="none">
<path d="M6196 8113 c-79 -158 -141 -417 -183 -768 -14 -118 -18 -227 -17
-515 0 -389 7 -498 60 -840 23 -148 89 -474 100 -492 3 -4 -15 -12 -38 -18
-1269 -322 -2751 -1149 -3684 -2053 l-132 -128 -73 103 c-165 232 -338 551
-423 780 -45 122 -90 293 -112 423 -26 152 -24 399 4 543 54 271 176 509 360
704 185 194 395 312 660 368 141 31 429 38 622 16 206 -24 186 -13 192 -110 9
-134 56 -199 193 -262 150 -69 356 -104 625 -104 274 0 507 38 676 111 l45 19
-46 58 c-66 85 -207 219 -305 291 -272 201 -620 341 -848 341 -119 0 -184 -33
-249 -127 -43 -63 -16 -59 -218 -29 -247 37 -498 39 -685 6 -165 -30 -356 -98
-482 -171 -358 -209 -638 -601 -728 -1018 -90 -413 -25 -858 195 -1342 96
-211 252 -474 402 -677 l54 -73 -78 -86 c-582 -636 -1186 -1444 -1533 -2050
-49 -86 -108 -200 -132 -252 -36 -82 -43 -108 -46 -179 l-4 -82 620 0 619 0
-19 103 c-25 131 -20 356 11 488 47 204 147 427 269 599 85 121 260 296 382
382 160 113 375 216 553 263 l68 18 87 -84 c320 -309 809 -708 1306 -1066
l129 -93 460 0 459 0 -4 98 c-3 84 -8 104 -33 151 -51 93 -147 160 -275 192
-75 19 -257 16 -344 -5 -82 -20 -79 -21 -154 88 -103 149 -175 327 -211 523
-30 164 -35 223 -19 223 7 0 94 -9 193 -20 1019 -116 2046 -389 3199 -850 682
-273 1255 -536 2134 -981 l474 -239 593 0 592 0 12 60 c21 104 -8 211 -89 329
-131 193 -351 325 -651 389 -103 23 -260 42 -337 42 -49 0 -50 1 -118 77 -163
184 -630 685 -1203 1291 -189 200 -339 367 -335 372 5 4 45 33 88 65 382 279
757 674 1029 1082 l102 153 323 0 322 0 0 75 0 75 -275 0 c-151 0 -275 3 -275
6 0 4 20 45 46 90 l45 84 230 0 229 0 0 75 0 75 -194 0 -194 0 52 123 c170
395 291 854 345 1307 55 456 40 1035 -40 1595 -39 275 -95 495 -126 495 -26 0
-230 -103 -338 -171 -349 -218 -622 -493 -721 -725 -25 -60 -29 -64 -53 -60
-51 11 -278 36 -416 45 -483 35 -993 18 -1463 -50 -79 -12 -145 -19 -146 -17
-1 1 -15 37 -30 79 -104 291 -432 596 -911 846 -67 34 -127 63 -133 63 -7 0
-22 -21 -36 -47z m188 -558 c104 -325 273 -542 522 -668 l51 -26 134 34 c168
42 363 79 561 104 216 28 428 45 438 35 5 -5 79 -164 165 -354 87 -190 160
-348 164 -353 4 -4 54 154 110 350 57 197 106 361 110 364 3 4 74 3 156 -2
312 -19 603 -60 854 -119 68 -17 128 -30 135 -30 18 0 140 110 201 180 151
175 278 436 341 703 10 42 21 74 25 70 10 -10 35 -187 49 -338 29 -331 40
-1026 20 -1295 -11 -148 -35 -349 -53 -448 l-12 -64 -175 -74 c-96 -42 -179
-79 -183 -83 -4 -4 65 -18 153 -31 l161 -23 -7 -31 c-9 -43 -82 -297 -86 -300
-2 -1 -72 -22 -155 -46 -84 -24 -153 -46 -153 -49 0 -3 48 -23 108 -44 59 -21
113 -41 121 -46 14 -9 -18 -100 -94 -263 l-35 -78 -268 -2 -267 -3 -3 -67 -3
-68 231 0 c126 0 230 -2 230 -5 0 -9 -51 -107 -76 -147 l-24 -38 -177 -2 -178
-3 -3 -67 -3 -67 136 -3 136 -3 -83 -117 c-316 -442 -738 -831 -1204 -1111
l-61 -37 -94 51 c-339 184 -557 348 -835 624 -182 181 -289 305 -416 482 -86
119 -88 113 31 113 l102 0 -3 68 -3 67 -149 5 -149 5 -48 85 c-27 47 -49 88
-49 93 0 4 90 7 200 7 l201 0 -3 68 -3 67 -239 5 -240 5 -54 120 c-64 140
-152 367 -146 376 2 3 53 19 114 35 60 16 110 31 110 34 0 3 -62 29 -138 59
-75 29 -142 59 -149 65 -10 9 -93 286 -88 294 1 1 103 9 226 18 123 8 225 17
227 19 2 2 -43 28 -100 58 -57 30 -175 93 -263 140 -157 84 -160 86 -167 124
-20 110 -59 458 -68 598 -24 387 0 796 66 1135 35 179 34 178 60 60 13 -58 39
-154 58 -215z m-140 -2352 c41 -127 132 -362 182 -471 24 -52 44 -96 44 -98 0
-2 -94 -4 -210 -4 l-210 0 0 -70 0 -70 247 -2 247 -3 52 -92 52 -93 -296 -2
-297 -3 0 -70 0 -70 345 -3 345 -2 29 -48 c16 -26 80 -114 141 -197 344 -461
786 -863 1314 -1193 l143 -90 62 36 c33 19 80 48 103 64 23 15 43 28 45 28 3
0 41 -40 86 -89 l81 -88 -139 -214 c-76 -118 -137 -215 -136 -217 2 -1 107 45
234 103 127 58 235 105 240 105 6 0 71 -66 145 -146 l135 -147 -229 -175
c-127 -96 -228 -176 -226 -179 2 -2 147 33 322 78 l317 83 31 -37 c18 -20 214
-232 437 -472 l405 -436 97 6 c227 15 442 -40 625 -161 86 -57 193 -165 231
-233 l23 -41 -469 0 -468 0 -575 288 c-731 367 -1195 583 -1749 814 -1317 549
-2498 868 -3627 979 l-121 12 4 76 c15 240 51 476 108 716 20 81 34 150 31
154 -6 11 -174 55 -181 49 -9 -9 -63 -235 -89 -373 -35 -184 -55 -341 -62
-484 l-6 -124 -101 7 c-387 23 -726 17 -947 -18 l-80 -13 -121 126 c-67 69
-179 193 -250 275 l-127 149 19 27 c25 35 327 315 465 431 174 146 377 300
389 296 6 -3 107 -71 224 -152 117 -81 215 -145 217 -143 2 1 -28 113 -66 248
-38 135 -69 252 -69 260 0 14 326 230 393 261 23 10 53 -3 352 -156 179 -92
328 -165 329 -163 2 1 -66 122 -151 267 -84 146 -150 268 -146 272 5 3 65 36
135 71 l128 66 461 -309 c254 -170 464 -308 466 -306 2 2 -64 204 -147 448
-82 243 -147 446 -142 450 40 36 830 296 907 298 17 1 26 -14 49 -86z m-3869
-2318 c42 -49 132 -150 198 -223 67 -74 123 -137 125 -140 1 -4 -37 -21 -85
-37 -116 -39 -317 -139 -422 -210 -349 -234 -607 -570 -736 -959 -54 -160 -75
-283 -82 -458 l-6 -158 -378 0 c-209 0 -379 2 -379 5 0 26 193 354 338 575
322 491 760 1057 1163 1503 74 82 143 160 154 173 10 13 22 23 26 22 4 -2 42
-43 84 -93z"/>
<path d="M7580 6510 c-181 -28 -356 -163 -454 -350 -20 -37 -36 -72 -36 -78 0
-5 25 -18 55 -29 l55 -21 37 72 c111 211 362 340 513 264 37 -19 51 -34 77
-88 20 -39 37 -95 44 -140 15 -99 5 -291 -24 -445 l-22 -120 -287 -3 -288 -2
0 -60 0 -60 270 0 270 0 -6 -27 c-27 -114 -137 -385 -205 -509 -21 -39 -39
-76 -39 -81 0 -6 155 -108 345 -227 190 -120 345 -221 345 -226 0 -4 -88 -65
-195 -135 l-194 -127 35 -53 36 -53 211 140 c117 78 219 143 228 145 9 3 116
-60 248 -146 127 -83 235 -151 240 -151 4 0 22 22 39 50 l31 49 -160 98 c-87
54 -188 116 -223 138 l-65 41 345 223 c190 123 347 227 349 230 2 4 -18 44
-44 89 -99 169 -126 316 -89 485 l10 47 294 0 294 0 0 60 0 60 -270 0 c-148 0
-270 2 -270 5 0 3 15 36 34 73 117 233 280 333 589 364 l117 11 0 59 0 58 -68
0 c-156 0 -353 -52 -475 -127 -127 -77 -250 -230 -307 -384 l-22 -59 -500 0
c-471 0 -499 1 -494 18 14 46 37 199 46 304 17 195 -12 379 -74 476 -74 115
-195 164 -346 142z m1313 -1102 c-5 -24 -8 -88 -7 -143 0 -108 24 -205 70
-297 13 -26 24 -50 24 -53 0 -3 -283 -5 -629 -5 l-629 0 43 98 c47 107 116
296 141 385 l15 57 490 0 489 0 -7 -42z m-43 -622 c0 -4 -486 -326 -493 -326
-6 0 -499 309 -511 321 -6 5 207 9 497 9 279 0 507 -2 507 -4z"/>
</g>
</symbol>


<!-- define view locations for each icon -->
    <view id="shape-tomcat-view" viewBox="0 0 24 24" />

	<use xlink:href="#shape-tomcat" width="24" height="24" x="0" y="0" id="tomcat"></use>
</svg>
